# AST/ASF file generated using VICON BodyLanguage
# -----------------------------------------------
:version 1.10
:name VICON
:units
  mass 1.0
  length 0.45
  angle deg
:documentation
   .ast/.asf automatically generated from VICON data using
   VICON BodyBuilder and BodyLanguage model FoxedUp or BRILLIANT.MOD
:root
   order TX TY TZ RX RY RZ
   axis XYZ
   position 0 0 0  
   orientation 0 0 0 
:bonedata
  begin
     id 1 
     name lhipjoint
     direction 0.584852 -0.759097 0.285867 
     length 2.43633 
     axis 0 0 0  XYZ
  end
  begin
     id 2 
     name lfemur
     direction 0.34202 -0.939693 0  
     length 7.14704  
     axis 0 0 20  XYZ
    dof rx ry rz
    limits (-160.0 20.0)
           (-70.0 70.0)
           (-60.0 70.0)
  end
  begin
     id 3 
     name ltibia
     direction 0.342022 -0.939692 0   
     length 7.68483   
     axis 0 0 20   XYZ
    dof rx
    limits (-10.0 170.0)
  end
  begin
     id 4 
     name lfoot
     direction 0.0999605 -0.274639 0.956337   
     length 2.40452   
     axis -90 7.62852e-016 20   XYZ
    dof rx rz
    limits (-45.0 90.0)
           (-70.0 20.0)
  end
  begin
     id 5 
     name ltoes
     direction 1.53468e-011 -4.21881e-011 1   
     length 1.19837   
     axis -90 7.62852e-016 20   XYZ
    dof rx
    limits (-90.0 20.0)
  end
  begin
     id 6 
     name rhipjoint
     direction -0.569886 -0.769002 0.289597   
     length 2.40495  
     axis 0 0 0  XYZ 
  end
  begin
     id 7 
     name rfemur
     direction -0.34202 -0.939693 0   
     length 7.45086   
     axis 0 0 -20   XYZ
    dof rx ry rz
    limits (-160.0 20.0)
           (-70.0 70.0)
           (-70.0 60.0)
  end
  begin
     id 8 
     name rtibia
     direction -0.34202 -0.939693 0   
     length 7.76831   
     axis 0 0 -20   XYZ
    dof rx
    limits (-10.0 170.0)
 end
 begin
     id 9 
     name rfoot
     direction -0.0798572 -0.219406 0.97236   
     length 2.35911  
     axis -90 -7.62852e-016 -20   XYZ
    dof rx rz
    limits (-45.0 90.0)
           (-20.0 70.0)
  end
  begin
     id 10 
     name rtoes
     direction -1.53469e-011 -4.21728e-011 1   
     length 1.18261   
     axis -90 -7.62852e-016 -20   XYZ
    dof rx
    limits (-90.0 20.0)
  end
  begin
     id 11 
     name lowerback
     direction 0.0242088 0.999437 0.0232389   
     length 2.1561   
     axis 0 0 0   XYZ
    dof rx ry rz
    limits (-20.0 45.0)
           (-30.0 30.0)
           (-30.0 30.0)
  end
  begin
     id 12 
     name upperback
     direction -0.0356893 0.999013 -0.0264323   
     length 2.14431   
     axis 0 0 0   XYZ
    dof rx ry rz
    limits (-20.0 45.0)
           (-30.0 30.0)
           (-30.0 30.0)
  end
  begin
     id 13 
     name thorax
     direction -0.0472163 0.998194 -0.0371284   
     length 2.16169   
     axis 0 0 0   XYZ
    dof rx ry rz
    limits (-20.0 45.0)
           (-30.0 30.0)
           (-30.0 30.0)
  end
  begin
     id 14 
     name lowerneck
     direction 0.00863244 0.999921 0.00911972   
     length 1.58651   
     axis 0 0 0   XYZ
    dof rx ry rz
    limits (-20.0 45.0)
           (-30.0 30.0)
           (-30.0 30.0)
  end
  begin
     id 15 
     name upperneck
     direction 0.149523 0.979068 -0.138086   
     length 1.57486   
     axis 0 0 0   XYZ
    dof rx ry rz
    limits (-20.0 45.0)
           (-30.0 30.0)
           (-30.0 30.0)
  end
  begin
     id 16
     name head
     direction 0.0445219 0.997708 -0.0509576  
     length 1.6019  
     axis 0 0 0   XYZ
    dof rx ry rz
    limits (-20.0 45.0)
           (-30.0 30.0)
           (-30.0 30.0)
  end
  begin
     id 17 
     name lclavicle
     direction 0.911271 0.381667 -0.154644  
     length 3.80848  
     axis 0 0 0   XYZ
    dof ry rz
    limits (-20.0 10.0)
           (0.0 20.0)
  end
  begin
     id 18 
     name lhumerus
     direction 1 -4.49003e-011 2.1308e-027   
     length 5.19069   
     axis 180 -30 -90   XYZ
    dof rx ry rz
    limits (-60.0 90.0)
           (-90.0 90.0)
           (-90.0 90.0)
  end
  begin
     id 19
     name lradius
     direction 1 -4.48914e-011 4.01554e-027   
     length 3.30016   
     axis 180 -30 -90   XYZ
    dof rx
    limits (-10.0 170.0)
  end
  begin
     id 20
     name lwrist
     direction 1 -4.49003e-011 1.1934e-026   
     length 1.65008   
     axis -8.46377e-015 90 90   XYZ
    dof ry
    limits (-180.0 0.0)
 end
  begin
     id 21 
     name lhand
     direction 1 -4.49034e-011 2.38659e-026   
     length 0.707698   
     axis -1.52313e-014 90 90   XYZ
    dof rx rz
    limits (-90.0 90.0)
           (-45.0 45.0)
  end
  begin
     id 22 
     name lfingers
     direction 1 -4.48691e-011 4.77775e-026   
     length 0.570564   
     axis -3.04623e-014 90 90   XYZ
    dof rx
    limits (0.0 90.0)
  end
  begin
     id 23
     name lthumb
     direction 0.707107 -6.34832e-011 0.707107   
     length 0.819219   
     axis -90 45 -1.62303e-014   XYZ
    dof rx rz
    limits (-45.0 45.0)
           (-45.0 45.0)
  end
  begin
     id 24 
     name rclavicle
     direction -0.815579 0.573708 -0.0754329   
     length 3.54371  
     axis 0 0 0   XYZ 
    dof ry rz
    limits (-10.0 20.0)
           (-20.0 0.0)
  end
  begin
     id 25 
     name rhumerus
     direction -1 -4.48956e-011 3.05351e-028  
     length 5.23924   
     axis 180 30 90   XYZ
    dof rx ry rz
    limits (-90.0 60.0)
           (-90.0 90.0)
           (-90.0 90.0)
  end
  begin
     id 26 
     name rradius
     direction -1 -4.49013e-011 3.53849e-027   
     length 3.32953   
     axis 180 30 90   XYZ
    dof rx
    limits (-10.0 170.0)
  end
  begin
     id 27 
     name rwrist
     direction -1 -4.48901e-011 1.19374e-026   
     length 1.66477   
     axis -8.46377e-015 -90 -90   XYZ
    dof ry
    limits (-180.0 0.0)
  end
  begin
     id 28
     name rhand
     direction -1 -4.48877e-011 2.38764e-026   
     length 0.607414   
     axis -1.52313e-014 -90 -90   XYZ
    dof rx rz
    limits (-90.0 90.0)
           (-45.0 45.0)
  end
  begin
     id 29
     name rfingers
     direction -1 -4.48882e-011 4.77521e-026   
     length 0.489712   
     axis -3.04623e-014 -90 -90   XYZ
    dof rx
    limits (0.0 90.0)
  end
  begin
     id 30
     name rthumb
     direction -0.707107 -6.34974e-011 0.707107   
     length 0.703132   
     axis -90 -45 1.62303e-014   XYZ
    dof rx rz
    limits (-45.0 45.0)
           (-45.0 45.0)
  end
:hierarchy
  begin
    root lhipjoint rhipjoint lowerback
    lhipjoint lfemur
    lfemur ltibia
    ltibia lfoot
    lfoot ltoes
    rhipjoint rfemur
    rfemur rtibia
    rtibia rfoot
    rfoot rtoes
    lowerback upperback
    upperback thorax
    thorax lowerneck lclavicle rclavicle
    lowerneck upperneck
    upperneck head
    lclavicle lhumerus
    lhumerus lradius
    lradius lwrist
    lwrist lhand lthumb
    lhand lfingers
    rclavicle rhumerus
    rhumerus rradius
    rradius rwrist
    rwrist rhand rthumb
    rhand rfingers
  end

#!OML:ASF E:\VariousWalksJay\Project 1\Capture day 1\Session 1\Actor2.ASF
:FULLY-SPECIFIED
:DEGREES
361
root 21.2292 15.966 -16.8872 15.1751 -35.5903 -2.20273
lowerback 23.9757 -5.54655 9.91734
upperback 15.6903 -5.85516 -1.5726
thorax 3.24786 -2.35604 -6.06671
lowerneck 4.14245 1.57799 3.17036
upperneck -19.4799 2.27067 -0.69521
head -6.5542 0.85758 -0.899692
rclavicle 6.36111e-015 -4.37326e-014
rhumerus -40.0844 24.5619 -85.1916
rradius 82.9199
rwrist 4.31585
rhand -45.5215 7.61094
rfingers 7.12502
rthumb -18.2854 -21.5496
lclavicle 6.36111e-015 -4.37326e-014
lhumerus 43.3972 -39.0315 43.4742
lradius 84.9394
lwrist 46.0092
lhand -32.6232 8.81499
lfingers 7.12502
lthumb -5.85044 38.7142
rfemur -56.8605 1.97354 27.5446
rtibia 57.5921
rfoot -18.4225 -13.8809
rtoes 6.10673
lfemur -45.0272 17.2939 -18.3424
ltibia 112.242
lfoot -13.2574 -5.93054
ltoes -22.3818
362
root 21.2063 15.8908 -16.8664 15.0121 -35.7616 -2.49028
lowerback 24.7932 -5.46628 9.89799
upperback 15.8573 -5.69084 -1.51799
thorax 3.0982 -2.28714 -5.99288
lowerneck 3.99795 1.55458 3.27537
upperneck -19.716 2.23431 -0.732295
head -6.60373 0.829146 -0.926937
rclavicle -7.07673e-014 3.10104e-014
rhumerus -38.9324 25.2123 -84.8511
rradius 83.8773
rwrist 3.90979
rhand -45.4106 6.87949
rfingers 7.12502
rthumb -18.1788 -22.291
lclavicle -7.07673e-014 3.10104e-014
lhumerus 44.8763 -37.6243 42.5525
lradius 84.4002
lwrist 46.524
lhand -32.5051 9.1312
lfingers 7.12502
lthumb -5.73641 39.0335
rfemur -56.9957 1.97688 27.9528
rtibia 58.7189
rfoot -19.1165 -13.8406
rtoes 5.41916
lfemur -47.3569 18.1272 -17.922
ltibia 114.702
lfoot -13.5788 -6.51244
ltoes -22.3804
363
root 21.1841 15.8132 -16.845 14.8558 -35.9847 -2.77464
lowerback 25.6119 -5.37351 9.83862
upperback 16.017 -5.51985 -1.467
thorax 2.94587 -2.21838 -5.90494
lowerneck 3.8549 1.54166 3.35974
upperneck -19.9577 2.21064 -0.765291
head -6.65547 0.807753 -0.950387
rclavicle 5.56597e-015 -3.02153e-014
rhumerus -37.7135 25.9062 -84.4489
rradius 84.8217
rwrist 3.48165
rhand -45.2691 6.09669
rfingers 7.12502
rthumb -18.0426 -23.0865
lclavicle 5.56597e-015 -3.02153e-014
lhumerus 46.253 -36.1773 41.7192
lradius 83.8441
lwrist 47.0029
lhand -32.4032 9.42965
lfingers 7.12502
lthumb -5.63798 39.3346
rfemur -57.1448 2.0034 28.3546
rtibia 59.8574
rfoot -19.805 -13.8071
rtoes 4.69505
lfemur -49.7153 19.0232 -17.5532
ltibia 116.977
lfoot -13.8926 -7.09858
ltoes -22.4083
364
root 21.1626 15.7338 -16.8229 14.6963 -36.2536 -3.04668
lowerback 26.4353 -5.27006 9.74176
upperback 16.1719 -5.34493 -1.42506
thorax 2.79104 -2.15055 -5.80959
lowerneck 3.71384 1.53805 3.43193
upperneck -20.2103 2.19904 -0.794251
head -6.71113 0.792372 -0.971465
rclavicle -7.07673e-014 1.86858e-014
rhumerus -36.4251 26.621 -83.9855
rradius 85.7509
rwrist 3.05978
rhand -45.0905 5.27539
rfingers 7.12502
rthumb -17.8707 -23.9235
lclavicle -7.07673e-014 1.86858e-014
lhumerus 47.5421 -34.7001 40.952
lradius 83.2774
lwrist 47.4263
lhand -32.3156 9.71021
lfingers 7.12502
lthumb -5.55346 39.6174
rfemur -57.2997 2.04913 28.7406
rtibia 61.0043
rfoot -20.4814 -13.7854
rtoes 3.94965
lfemur -52.095 19.95 -17.2525
ltibia 119.058
lfoot -14.2002 -7.67002
ltoes -22.4521
365
root 21.1416 15.6533 -16.8 14.5239 -36.5596 -3.29812
lowerback 27.2667 -5.15938 9.61314
upperback 16.3245 -5.17013 -1.39708
thorax 2.63348 -2.08486 -5.71437
lowerneck 3.57598 1.54306 3.49912
upperneck -20.4781 2.19939 -0.819437
head -6.77224 0.782336 -0.991489
rclavicle -7.59357e-014 8.62725e-014
rhumerus -35.0677 27.3345 -83.4647
rradius 86.6632
rwrist 2.67063
rhand -44.873 4.4276
rfingers 7.12502
rthumb -17.6614 -24.7903
lclavicle -7.59357e-014 8.62725e-014
lhumerus 48.7556 -33.2016 40.2337
lradius 82.7076
lwrist 47.7819
lhand -32.2366 9.97637
lfingers 7.12502
lthumb -5.47719 39.8856
rfemur -57.453 2.10797 29.1034
rtibia 62.1551
rfoot -21.1368 -13.7817
rtoes 3.20205
lfemur -54.4889 20.8682 -17.0342
ltibia 120.936
lfoot -14.5013 -8.20549
ltoes -22.5002
366
root 21.1212 15.5722 -16.7762 14.3305 -36.893 -3.52216
lowerback 28.1082 -5.04549 9.45952
upperback 16.476 -4.99981 -1.38655
thorax 2.47292 -2.02268 -5.62578
lowerneck 3.44228 1.55622 3.56714
upperneck -20.7626 2.21153 -0.842186
head -6.83942 0.777184 -1.01188
rclavicle 1.03368e-014 -4.01545e-014
rhumerus -33.6441 28.027 -82.8927
rradius 87.5566
rwrist 2.33355
rhand -44.6188 3.56379
rfingers 7.12502
rthumb -17.4168 -25.6759
lclavicle 1.03368e-014 -4.01545e-014
lhumerus 49.9028 -31.6892 39.552
lradius 82.1424
lwrist 48.0702
lhand -32.1598 10.2319
lfingers 7.12502
lthumb -5.40304 40.143
rfemur -57.5981 2.17376 29.4375
rtibia 63.3051
rfoot -21.7608 -13.8043
rtoes 2.4731
lfemur -56.8897 21.7349 -16.9089
ltibia 122.607
lfoot -14.793 -8.68368
ltoes -22.5434
367
root 21.1013 15.491 -16.7514 14.1102 -37.2464 -3.71471
lowerback 28.9609 -4.93145 9.28774
upperback 16.6278 -4.83701 -1.39536
thorax 2.30967 -1.96479 -5.54894
lowerneck 3.31319 1.5768 3.64024
upperneck -21.0629 2.23461 -0.864518
head -6.91242 0.776333 -1.03394
rclavicle -2.34566e-014 6.55989e-014
rhumerus -32.159 28.6831 -82.2772
rradius 88.4288
rwrist 2.0571
rhand -44.3336 2.69276
rfingers 7.12502
rthumb -17.1423 -26.571
lclavicle -2.34566e-014 6.55989e-014
lhumerus 50.9917 -30.1683 38.8981
lradius 81.5894
lwrist 48.3048
lhand -32.0791 10.4792
lfingers 7.12502
lthumb -5.32506 40.3923
rfemur -57.7297 2.24319 29.7395
rtibia 64.4494
rfoot -22.3436 -13.8611
rtoes 1.79208
lfemur -59.2887 22.5103 -16.8814
ltibia 124.065
lfoot -15.0724 -9.08411
ltoes -22.5735
368
root 21.0819 15.4101 -16.7254 13.8601 -37.6135 -3.87268
lowerback 30.1453 -4.86705 9.14532
upperback 16.7172 -4.65519 -1.61568
thorax 1.89092 -1.91029 -5.32124
lowerneck 3.18906 1.60499 3.71824
upperneck -21.3753 2.26873 -0.887624
head -6.99016 0.780007 -1.05804
rclavicle -2.8625e-014 4.37326e-014
rhumerus -30.6179 29.2967 -81.6267
rradius 89.277
rwrist 1.83729
rhand -44.026 1.81975
rfingers 7.12502
rthumb -16.8463 -27.4695
lclavicle -2.8625e-014 4.37326e-014
lhumerus 52.0232 -28.641 38.2716
lradius 81.0544
lwrist 48.5064
lhand -31.986 10.7195
lfingers 7.12502
lthumb -5.23526 40.6348
rfemur -57.8455 2.3158 30.0063
rtibia 65.5838
rfoot -22.8775 -13.959
rtoes 1.19395
lfemur -61.6771 23.1586 -16.9518
ltibia 125.309
lfoot -15.3363 -9.38929
ltoes -22.5882
369
root 21.0628 15.3299 -16.6982 13.5803 -37.9901 -3.99461
lowerback 31.0425 -4.76357 8.94924
upperback 16.8474 -4.51556 -1.67081
thorax 1.7179 -1.86363 -5.26755
lowerneck 3.06887 1.64023 3.80173
upperneck -21.6945 2.31304 -0.912326
head -7.07069 0.787907 -1.08444
rclavicle 3.65764e-014 -3.53837e-014
rhumerus -29.0263 29.8654 -80.9508
rradius 90.0979
rwrist 1.6596
rhand -43.7054 0.950009
rfingers 7.12502
rthumb -16.5376 -28.3653
lclavicle 3.65764e-014 -3.53837e-014
lhumerus 52.9996 -27.1093 37.672
lradius 80.5412
lwrist 48.7003
lhand -31.8747 10.9518
lfingers 7.12502
lthumb -5.1277 40.8697
rfemur -57.9458 2.39487 30.2362
rtibia 66.7052
rfoot -23.3576 -14.104
rtoes 0.709019
lfemur -64.046 23.6531 -17.1141
ltibia 126.339
lfoot -15.5821 -9.58661
ltoes -22.5908
370
root 21.044 15.2505 -16.6697 13.2723 -38.3746 -4.07989
lowerback 31.9415 -4.66463 8.74272
upperback 16.9767 -4.38992 -1.74579
thorax 1.54666 -1.82338 -5.2282
lowerneck 2.95161 1.68161 3.89134
upperneck -22.0143 2.36612 -0.939758
head -7.15188 0.79951 -1.11346
rclavicle -3.57812e-015 3.10104e-014
rhumerus -27.3904 30.3903 -80.2578
rradius 90.8887
rwrist 1.50329
rhand -43.3805 0.0858057
rfingers 7.12502
rthumb -16.2248 -29.2553
lclavicle -3.57812e-015 3.10104e-014
lhumerus 53.9226 -25.5746 37.1006
lradius 80.0501
lwrist 48.91
lhand -31.7391 11.1734
lfingers 7.12502
lthumb -4.99686 41.0945
rfemur -58.0321 2.48731 30.4271
rtibia 67.8121
rfoot -23.7845 -14.2988
rtoes 0.366373
lfemur -66.3833 23.9778 -17.3569
ltibia 127.158
lfoot -15.8087 -9.67034
ltoes -22.5811
371
root 21.0253 15.1722 -16.6399 12.9387 -38.7663 -4.12866
lowerback 32.8368 -4.56993 8.52357
upperback 17.1045 -4.27926 -1.83881
thorax 1.37894 -1.79014 -5.19992
lowerneck 2.83689 1.72921 3.98352
upperneck -22.3289 2.42776 -0.969832
head -7.23179 0.815134 -1.14443
rclavicle -6.16232e-014 6.48038e-014
rhumerus -25.7157 30.8786 -79.5531
rradius 91.6474
rwrist 1.34593
rhand -43.0594 -0.770125
rfingers 7.12502
rthumb -15.9155 -30.1361
lclavicle -6.16232e-014 6.48038e-014
lhumerus 54.7899 -24.0371 36.564
lradius 79.5783
lwrist 49.1518
lhand -31.5749 11.3802
lfingers 7.12502
lthumb -4.83831 41.3049
rfemur -58.107 2.60207 30.5774
rtibia 68.9043
rfoot -24.1639 -14.5426
rtoes 0.184849
lfemur -68.6768 24.1259 -17.6636
ltibia 127.77
lfoot -16.0156 -9.64182
ltoes -22.5523
